<svg width="25" height="13" viewBox="0 0 25 13" xmlns="http://www.w3.org/2000/svg">
<path d="M24.086 8.65779L20.0543 12.6946C19.9574 12.7914 19.8422 12.8682 19.7153 12.9206C19.5883 12.973 19.4522 13 19.3146 13C19.1771 13 19.0409 12.973 18.914 12.9206C18.787 12.8682 18.6718 12.7914 18.575 12.6946C18.4773 12.5986 18.3998 12.4844 18.3469 12.3586C18.294 12.2328 18.2668 12.0979 18.2668 11.9616C18.2668 11.8253 18.294 11.6903 18.3469 11.5645C18.3998 11.4387 18.4773 11.3245 18.575 11.2285L22.2837 7.53243H1.04178C0.765482 7.53243 0.5005 7.42366 0.305128 7.23004C0.109756 7.03642 -1.90735e-06 6.77382 -1.90735e-06 6.5C-1.90735e-06 6.22618 0.109756 5.96358 0.305128 5.76996C0.5005 5.57634 0.765482 5.46756 1.04178 5.46756H22.3462L18.575 1.73015C18.3903 1.53814 18.2872 1.28305 18.2872 1.01777C18.2872 0.752497 18.3903 0.497401 18.575 0.305392C18.6718 0.208624 18.787 0.131816 18.914 0.0794011C19.0409 0.0269858 19.1771 0 19.3146 0C19.4522 0 19.5883 0.0269858 19.7153 0.0794011C19.8422 0.131816 19.9574 0.208624 20.0543 0.305392L24.086 4.28027C24.6713 4.86101 25 5.64824 25 6.46903C25 7.28981 24.6713 8.07704 24.086 8.65779Z"/>
</svg>
