<svg width="20" height="20" viewBox="0 0 20 20" xmlns="http://www.w3.org/2000/svg">
<path d="M19.7452 7.97761C19.5831 7.82114 19.3633 7.73324 19.134 7.73324C18.9048 7.73324 18.685 7.82114 18.5229 7.97761L9.10774 17.1077C8.7064 17.4953 8.22994 17.8027 7.70555 18.0125C7.18115 18.2222 6.6191 18.3302 6.05149 18.3303C4.90514 18.3303 3.80571 17.8907 2.99506 17.1081C2.18441 16.3255 1.72895 15.264 1.72887 14.1571C1.72878 13.0503 2.18409 11.9887 2.99463 11.206L12.1133 2.36552C12.6009 1.90221 13.2584 1.6437 13.9425 1.64631C14.6266 1.64892 15.2819 1.91244 15.7657 2.37946C16.2495 2.84648 16.5226 3.47917 16.5254 4.13971C16.5283 4.80025 16.2607 5.43513 15.781 5.90604L6.66232 14.7465C6.49787 14.8986 6.27892 14.9835 6.05118 14.9835C5.82344 14.9835 5.6045 14.8986 5.44005 14.7465C5.27799 14.59 5.18696 14.3777 5.18696 14.1564C5.18696 13.9351 5.27799 13.7228 5.44005 13.5663L13.5586 5.69154C13.7161 5.53413 13.8032 5.3233 13.8012 5.10446C13.7992 4.88562 13.7083 4.67628 13.5481 4.52153C13.3878 4.36679 13.171 4.27901 12.9443 4.27711C12.7177 4.27521 12.4993 4.35933 12.3363 4.51137L4.21777 12.3862C3.97692 12.6187 3.78586 12.8947 3.65551 13.1985C3.52516 13.5023 3.45807 13.828 3.45807 14.1568C3.45807 14.4857 3.52516 14.8113 3.65551 15.1151C3.78586 15.419 3.97692 15.695 4.21777 15.9275C4.71188 16.3828 5.36863 16.6368 6.05162 16.6368C6.7346 16.6368 7.39135 16.3828 7.88546 15.9275L17.0033 7.08622C17.7968 6.30024 18.2377 5.24405 18.2304 4.14644C18.2231 3.04883 17.7682 1.99818 16.9644 1.22209C16.1605 0.445996 15.0723 0.00695939 13.9355 8.20258e-05C12.7987 -0.00679534 11.7049 0.419041 10.891 1.18534L1.77235 10.0258C0.637534 11.1215 -1.69101e-08 12.6077 0 14.1573C1.69101e-08 15.7068 0.637534 17.193 1.77235 18.2887C2.90717 19.3844 4.44631 20 6.05118 20C7.65606 20 9.1952 19.3844 10.33 18.2887L19.7452 9.16112C19.8259 9.08356 19.89 8.99135 19.9338 8.8898C19.9775 8.78825 20 8.67935 20 8.56937C20 8.45938 19.9775 8.35049 19.9338 8.24893C19.89 8.14738 19.8259 8.05517 19.7452 7.97761Z"/>
</svg>
