<svg width="16" height="16" viewBox="0 0 16 16" ojo="stroke" xmlns="http://www.w3.org/2000/svg">
<path d="M8.94271 7.99599L15.8048 1.1304C16.0606 0.865446 16.0533 0.443162 15.7885 0.187247C15.5301 -0.0624155 15.1205 -0.0624155 14.8622 0.187247L8 7.05284L1.13787 0.187247C0.873017 -0.0686688 0.450978 -0.0613212 0.195191 0.20363C-0.0543448 0.462109 -0.0543448 0.871918 0.195191 1.1304L7.05733 7.99599L0.195191 14.8616C-0.0650638 15.1221 -0.0650638 15.5443 0.195191 15.8047C0.45554 16.0651 0.877548 16.0651 1.13787 15.8047L8 8.93915L14.8621 15.8047C15.1225 16.0651 15.5445 16.0651 15.8048 15.8047C16.0651 15.5443 16.0651 15.122 15.8048 14.8616L8.94271 7.99599Z"/>
</svg>
