<svg width="16" height="16" viewBox="0 0 16 16" fill="none" xmlns="http://www.w3.org/2000/svg">
<path d="M10.0073 11.2175L10.2312 12.6112C10.2899 12.9792 10.2509 13.3565 10.1185 13.7037C9.98598 14.0509 9.76482 14.3552 9.47817 14.5847C9.19152 14.8142 8.84992 14.9605 8.48917 15.0082C8.12842 15.0559 7.7618 15.0032 7.42771 14.8558C6.966 14.6434 6.59508 14.2666 6.38374 13.7953L5.14124 11.2175H1.99867C1.46859 11.2175 0.960219 11.0017 0.585396 10.6175C0.210573 10.2333 0 9.71228 0 9.16896L0 3.02325C0 2.47994 0.210573 1.95887 0.585396 1.57469C0.960219 1.19051 1.46859 0.974681 1.99867 0.974681H14.6689L15.9893 8.51137L16 11.2175H10.0073ZM1.33245 3.02325V9.16896C1.33245 9.35007 1.40264 9.52375 1.52758 9.65181C1.65252 9.77988 1.82197 9.85182 1.99867 9.85182H4.66356V2.34039H1.99867C1.82197 2.34039 1.65252 2.41234 1.52758 2.5404C1.40264 2.66846 1.33245 2.84215 1.33245 3.02325ZM14.6569 8.69096L13.5443 2.34039H5.996V9.91396L7.60759 13.26C7.66216 13.3612 7.73939 13.4476 7.83292 13.5123C7.92646 13.577 8.03363 13.6179 8.14562 13.6319C8.25762 13.6458 8.37124 13.6323 8.47715 13.5924C8.58305 13.5526 8.67822 13.4876 8.75483 13.4027C8.82029 13.3247 8.86814 13.2328 8.89497 13.1336C8.9218 13.0345 8.92695 12.9305 8.91006 12.8291L8.43105 9.85182H14.6569V8.69096Z" fill="#FF0000"/>
</svg>
