<svg width="18" height="13" viewBox="0 0 18 13" xmlns="http://www.w3.org/2000/svg">
<path d="M17.8661 5.5621C17.2076 4.25673 14.6253 0 9.00013 0C3.37499 0 0.792674 4.25673 0.134157 5.5621C0.0457583 5.73704 0 5.92719 0 6.11961C0 6.31202 0.0457583 6.50217 0.134157 6.67711C0.792674 7.98112 3.37499 12.2379 9.00013 12.2379C14.6253 12.2379 17.2076 7.98112 17.8661 6.67575C17.9543 6.50101 18 6.3111 18 6.11893C18 5.92676 17.9543 5.73684 17.8661 5.5621ZM9.00013 10.8781C4.26976 10.8781 2.06246 7.22985 1.49994 6.12641C2.06246 5.008 4.26976 1.35976 9.00013 1.35976C13.7193 1.35976 15.9273 4.99236 16.5003 6.11893C15.9273 7.24549 13.7193 10.8781 9.00013 10.8781Z" />
<path d="M9.0001 2.71948C8.2584 2.71948 7.53336 2.91885 6.91666 3.29239C6.29996 3.66592 5.8193 4.19684 5.53546 4.818C5.25162 5.43916 5.17736 6.12267 5.32206 6.78209C5.46676 7.44151 5.82392 8.04723 6.34838 8.52264C6.87284 8.99806 7.54104 9.32182 8.26849 9.45299C8.99594 9.58416 9.74996 9.51684 10.4352 9.25954C11.1204 9.00225 11.7061 8.56654 12.1182 8.00751C12.5303 7.44848 12.7502 6.79124 12.7502 6.1189C12.749 5.21765 12.3535 4.35362 11.6505 3.71634C10.9475 3.07906 9.99432 2.72056 9.0001 2.71948ZM9.0001 8.15854C8.55508 8.15854 8.12005 8.03892 7.75003 7.8148C7.38001 7.59068 7.09162 7.27213 6.92131 6.89944C6.75101 6.52674 6.70645 6.11663 6.79327 5.72098C6.88009 5.32533 7.09439 4.9619 7.40907 4.67665C7.72374 4.3914 8.12466 4.19714 8.56113 4.11844C8.9976 4.03974 9.45001 4.08013 9.86116 4.23451C10.2723 4.38888 10.6237 4.65031 10.871 4.98573C11.1182 5.32115 11.2502 5.71549 11.2502 6.1189C11.2502 6.65984 11.0131 7.17864 10.5911 7.56114C10.1692 7.94365 9.59685 8.15854 9.0001 8.15854Z" />
</svg>
