<svg width="18" height="18" ojo="stroke" viewBox="0 0 18 18" xmlns="http://www.w3.org/2000/svg">
<path d="M11.024 6.97673L6.976 11.0248C6.45599 10.5048 6.13599 9.79276 6.13599 9.00075C6.13599 7.41673 7.416 6.13672 9.00002 6.13672C9.79203 6.13672 10.504 6.45672 11.024 6.97673Z" stroke-width="1.2" stroke-linecap="round" stroke-linejoin="round"/>
<path d="M13.656 4.01678C12.256 2.96077 10.656 2.38477 8.99996 2.38477C6.17593 2.38477 3.5439 4.04878 1.71188 6.92881C0.991873 8.05683 0.991873 9.95285 1.71188 11.0809C2.34389 12.0729 3.0799 12.9289 3.8799 13.6169" stroke-width="1.2" stroke-linecap="round" stroke-linejoin="round"/>
<path d="M6.13599 15.0242C7.048 15.4082 8.01601 15.6162 9.00002 15.6162C11.824 15.6162 14.4561 13.9522 16.2881 11.0722C17.0081 9.94419 17.0081 8.04816 16.2881 6.92015C16.0241 6.50415 15.7361 6.11214 15.4401 5.74414" stroke-width="1.2" stroke-linecap="round" stroke-linejoin="round"/>
<path d="M11.8085 9.56055C11.6005 10.6886 10.6805 11.6086 9.55249 11.8166" stroke-width="1.2" stroke-linecap="round" stroke-linejoin="round"/>
<path d="M6.97606 11.0234L1 16.9995" stroke-width="1.2" stroke-linecap="round" stroke-linejoin="round"/>
<path d="M17.0005 1L11.0244 6.97606" stroke-width="1.2" stroke-linecap="round" stroke-linejoin="round"/>
</svg>
