<svg width="18" height="16" viewBox="0 0 18 16" xmlns="http://www.w3.org/2000/svg">
<path d="M13.1233 0C12.2791 0.0131309 11.4534 0.24879 10.7294 0.683178C10.0054 1.11757 9.40886 1.7353 9 2.474C8.59115 1.7353 7.99461 1.11757 7.27063 0.683178C6.54665 0.24879 5.72086 0.0131309 4.87666 0C3.53091 0.0584695 2.263 0.64718 1.34992 1.63751C0.436849 2.62785 -0.0471631 3.93931 0.00362936 5.28537C0.00362936 8.69425 3.59168 12.4172 6.60097 14.9415C7.27286 15.5061 8.12237 15.8156 9 15.8156C9.87763 15.8156 10.7271 15.5061 11.399 14.9415C14.4083 12.4172 17.9964 8.69425 17.9964 5.28537C18.0472 3.93931 17.5632 2.62785 16.6501 1.63751C15.737 0.64718 14.4691 0.0584695 13.1233 0ZM10.4357 13.7944C10.0338 14.1328 9.52535 14.3184 9 14.3184C8.47465 14.3184 7.96618 14.1328 7.56433 13.7944C3.71238 10.5625 1.50302 7.46175 1.50302 5.28537C1.45178 4.33679 1.77769 3.40643 2.40968 2.69719C3.04167 1.98795 3.92847 1.55739 4.87666 1.4994C5.82486 1.55739 6.71165 1.98795 7.34365 2.69719C7.97564 3.40643 8.30155 4.33679 8.2503 5.28537C8.2503 5.4842 8.32929 5.67489 8.46988 5.81549C8.61048 5.95608 8.80117 6.03507 9 6.03507C9.19883 6.03507 9.38952 5.95608 9.53012 5.81549C9.67071 5.67489 9.7497 5.4842 9.7497 5.28537C9.69845 4.33679 10.0244 3.40643 10.6564 2.69719C11.2883 1.98795 12.1751 1.55739 13.1233 1.4994C14.0715 1.55739 14.9583 1.98795 15.5903 2.69719C16.2223 3.40643 16.5482 4.33679 16.497 5.28537C16.497 7.46175 14.2876 10.5625 10.4357 13.7914V13.7944Z"/>
</svg>
