<svg width="34" height="40" viewBox="0 0 34 40" fill="none" xmlns="http://www.w3.org/2000/svg">
<path d="M29.915 9.2267L24.1083 3.4167C23.0272 2.33027 21.7414 1.46892 20.3254 0.88247C18.9093 0.296018 17.391 -0.00390646 15.8583 3.84144e-05H8.33333C6.124 0.00268484 4.00593 0.881507 2.4437 2.44374C0.881469 4.00596 0.00264643 6.12404 0 8.33336V31.6667C0.00264643 33.876 0.881469 35.9941 2.4437 37.5563C4.00593 39.1185 6.124 39.9974 8.33333 40H25C27.2093 39.9974 29.3274 39.1185 30.8896 37.5563C32.4518 35.9941 33.3307 33.876 33.3333 31.6667V17.475C33.3375 15.9424 33.0375 14.4242 32.4507 13.0083C31.8639 11.5925 31.002 10.3071 29.915 9.2267ZM27.5583 11.5834C28.0672 12.1069 28.5049 12.6953 28.86 13.3334H21.6666C21.2246 13.3334 20.8007 13.1578 20.4881 12.8452C20.1756 12.5326 20 12.1087 20 11.6667V4.47337C20.6382 4.82824 21.2271 5.2653 21.7516 5.77337L27.5583 11.5834ZM30 31.6667C30 32.9928 29.4732 34.2645 28.5355 35.2022C27.5978 36.1399 26.3261 36.6667 25 36.6667H8.33333C7.00724 36.6667 5.73548 36.1399 4.79779 35.2022C3.86011 34.2645 3.33333 32.9928 3.33333 31.6667V8.33336C3.33333 7.00728 3.86011 5.73551 4.79779 4.79783C5.73548 3.86015 7.00724 3.33337 8.33333 3.33337H15.8583C16.1317 3.33337 16.3967 3.3867 16.6667 3.4117V11.6667C16.6667 12.9928 17.1934 14.2645 18.1311 15.2022C19.0688 16.1399 20.3406 16.6667 21.6666 16.6667H29.9216C29.9466 16.9367 30 17.2 30 17.475V31.6667Z"/>
</svg>
