<svg width="16" height="16" viewBox="0 0 16 16" fill="none" xmlns="http://www.w3.org/2000/svg">
<path d="M10.0073 4.78247L10.2312 3.38876C10.2899 3.02082 10.2509 2.64348 10.1185 2.29627C9.98598 1.94906 9.76482 1.64476 9.47817 1.41525C9.19152 1.18575 8.84992 1.03949 8.48917 0.991806C8.12842 0.944119 7.7618 0.996758 7.42771 1.14421C6.966 1.35658 6.59508 1.73336 6.38374 2.20468L5.14124 4.78247H1.99867C1.46859 4.78247 0.960219 4.9983 0.585396 5.38248C0.210573 5.76666 0 6.28772 0 6.83104L0 12.9767C0 13.5201 0.210573 14.0411 0.585396 14.4253C0.960219 14.8095 1.46859 15.0253 1.99867 15.0253H14.6689L15.9893 7.48863L16 4.78247H10.0073ZM1.33245 12.9767V6.83104C1.33245 6.64993 1.40264 6.47625 1.52758 6.34819C1.65252 6.22012 1.82197 6.14818 1.99867 6.14818H4.66356V13.6596H1.99867C1.82197 13.6596 1.65252 13.5877 1.52758 13.4596C1.40264 13.3315 1.33245 13.1579 1.33245 12.9767ZM14.6569 7.30904L13.5443 13.6596H5.996V6.08604L7.60759 2.74004C7.66216 2.63884 7.73939 2.55235 7.83292 2.48769C7.92646 2.42304 8.03363 2.38206 8.14562 2.36813C8.25762 2.3542 8.37124 2.36771 8.47715 2.40755C8.58305 2.4474 8.67822 2.51244 8.75483 2.59733C8.82029 2.67534 8.86814 2.7672 8.89497 2.86635C8.9218 2.9655 8.92695 3.0695 8.91006 3.17093L8.43105 6.14818H14.6569V7.30904Z" fill="#4EC63F"/>
</svg>
