<svg width="16" height="16" viewBox="0 0 16 16" xmlns="http://www.w3.org/2000/svg">
<path d="M5.47213 0H5.57361C9.03938 0 10.7098 1.36319 10.9986 4.41675C11.0299 4.73612 10.7957 5.02434 10.4678 5.0555C10.1556 5.08666 9.85899 4.84518 9.82777 4.5258C9.6014 2.07984 8.44614 1.16845 5.5658 1.16845H5.46432C2.28736 1.16845 1.16333 2.29016 1.16333 5.46056L1.16333 10.5394C1.16333 13.7098 2.28736 14.8315 5.46432 14.8315H5.5658C8.46175 14.8315 9.61701 13.9046 9.82777 11.4119C9.8668 11.0925 10.14 10.851 10.4678 10.8822C10.7957 10.9056 11.0299 11.1938 11.0064 11.5131C10.741 14.6134 9.0628 16 5.57361 16H5.47213C1.63948 16 0.000263214 14.3642 0.000263214 10.5394L0.000263214 5.46056C0.000263214 1.63583 1.63948 0 5.47213 0Z" />
<path d="M5.65998 7.41593L14.543 7.41593C14.863 7.41593 15.1284 7.68078 15.1284 8.00016C15.1284 8.31953 14.863 8.58438 14.543 8.58438L5.65998 8.58438C5.33994 8.58438 5.07454 8.31953 5.07454 8.00016C5.07454 7.68078 5.33994 7.41593 5.65998 7.41593Z" />
<path d="M12.8021 4.80621C12.9504 4.80621 13.0987 4.86074 13.2158 4.97759L15.8307 7.58713C16.0571 7.81303 16.0571 8.18693 15.8307 8.41283L13.2158 11.0224C12.9894 11.2483 12.6147 11.2483 12.3884 11.0224C12.162 10.7965 12.162 10.4226 12.3884 10.1967L14.5896 7.99998L12.3884 5.80329C12.162 5.57739 12.162 5.20349 12.3884 4.97759C12.4976 4.86074 12.6538 4.80621 12.8021 4.80621Z" />
</svg>
