<svg width="18" height="16" viewBox="0 0 18 16" xmlns="http://www.w3.org/2000/svg">
<path d="M14.3638 0H4.18202C3.21795 0.00115481 2.2937 0.384641 1.612 1.06634C0.930296 1.74804 0.546809 2.67229 0.545654 3.63636L0.545654 12.3636C0.546809 13.3277 0.930296 14.252 1.612 14.9337C2.2937 15.6154 3.21795 15.9988 4.18202 16H14.3638C15.3279 15.9988 16.2522 15.6154 16.9339 14.9337C17.6156 14.252 17.999 13.3277 18.0002 12.3636V3.63636C17.999 2.67229 17.6156 1.74804 16.9339 1.06634C16.2522 0.384641 15.3279 0.00115481 14.3638 0ZM4.18202 1.45455H14.3638C14.7993 1.4554 15.2246 1.58656 15.5849 1.83113C15.9452 2.0757 16.2241 2.42251 16.3857 2.82691L10.8162 8.39709C10.4063 8.80532 9.85141 9.03452 9.27293 9.03452C8.69444 9.03452 8.13952 8.80532 7.72965 8.39709L2.1602 2.82691C2.32176 2.42251 2.60065 2.0757 2.96096 1.83113C3.32128 1.58656 3.74654 1.4554 4.18202 1.45455ZM14.3638 14.5455H4.18202C3.60336 14.5455 3.04841 14.3156 2.63924 13.9064C2.23007 13.4972 2.0002 12.9423 2.0002 12.3636V4.72727L6.70129 9.42546C7.38393 10.1064 8.30875 10.4888 9.27293 10.4888C10.2371 10.4888 11.1619 10.1064 11.8446 9.42546L16.5457 4.72727V12.3636C16.5457 12.9423 16.3158 13.4972 15.9066 13.9064C15.4974 14.3156 14.9425 14.5455 14.3638 14.5455Z"/>
</svg>
